<svg width="284" height="381" viewBox="0 0 284 381" fill="none" xmlns="http://www.w3.org/2000/svg">
<path d="M0.333333 11.5C0.333333 17.391 5.10896 22.1667 11 22.1667C16.891 22.1667 21.6667 17.391 21.6667 11.5C21.6667 5.60896 16.891 0.833333 11 0.833333C5.10896 0.833333 0.333333 5.60896 0.333333 11.5ZM281.5 132L283.499 132.068L281.5 132ZM75 300.5L76.2294 302.078L75 300.5ZM63.3675 380.897C64.4154 381.247 65.5481 380.68 65.8974 379.632L71.5895 362.556C71.9388 361.508 71.3724 360.376 70.3246 360.026C69.2767 359.677 68.144 360.243 67.7947 361.291L62.7351 376.47L47.5562 371.411C46.5083 371.061 45.3756 371.628 45.0263 372.675C44.677 373.723 45.2434 374.856 46.2912 375.205L63.3675 380.897ZM10.9818 13.4999C56.6142 13.9155 124.821 20.4287 181.15 38.5662C209.321 47.6373 234.369 59.5684 252.142 74.9753C269.868 90.3418 280.276 109.08 279.501 131.932L283.499 132.068C284.324 107.72 273.157 87.8999 254.762 71.9528C236.412 56.0461 210.791 43.9085 182.375 34.7588C125.529 16.4546 56.8858 9.91782 11.0182 9.50008L10.9818 13.4999ZM279.501 131.932C278.515 161.029 269.778 182.347 256.196 198.895C242.578 215.487 223.983 227.411 203.068 237.512C182.104 247.635 159.103 255.8 136.529 265.08C114.047 274.321 92.1194 284.623 73.7706 298.922L76.2294 302.078C94.1306 288.127 115.64 277.991 138.049 268.78C160.366 259.606 183.708 251.302 204.807 241.113C225.954 230.901 245.141 218.669 259.288 201.433C273.472 184.153 282.485 161.971 283.499 132.068L279.501 131.932ZM73.7706 298.922C52.0829 315.824 48.6233 335.2 50.9818 350.854C53.3076 366.29 61.3479 378.168 62.2111 379.894L65.7889 378.106C64.6521 375.832 57.1384 364.868 54.9372 350.258C52.7687 335.865 55.8091 317.991 76.2294 302.078L73.7706 298.922Z" fill="white"/>
</svg>
