<svg width="366" height="114" viewBox="0 0 366 114" fill="none" xmlns="http://www.w3.org/2000/svg">
<path d="M344.333 11C344.333 16.891 349.109 21.6667 355 21.6667C360.891 21.6667 365.667 16.891 365.667 11C365.667 5.10896 360.891 0.333333 355 0.333333C349.109 0.333333 344.333 5.10896 344.333 11ZM12.465 113.282C13.173 114.13 14.4343 114.243 15.2821 113.535L29.0971 101.996C29.9448 101.288 30.0581 100.027 29.35 99.179C28.6419 98.3313 27.3806 98.218 26.5329 98.9261L14.2529 109.183L3.99611 96.9029C3.28803 96.0551 2.02677 95.9419 1.17901 96.65C0.331253 97.3581 0.218023 98.6193 0.926105 99.4671L12.465 113.282ZM353.108 10.3508C344.429 35.6405 333.019 52.5227 319.781 63.2824C306.562 74.0258 291.366 78.7919 274.865 79.5822C241.68 81.1715 203.552 66.6981 166.434 52.5647C147.961 45.5305 129.762 38.5972 112.741 33.9282C95.7364 29.2633 79.7068 26.7983 65.5865 28.8413C51.3668 30.8987 39.1397 37.5239 29.8852 50.8413C20.6915 64.0714 14.5266 83.7667 12.008 111.821L15.992 112.179C18.4807 84.4571 24.5368 65.5473 33.17 53.1239C41.7424 40.788 52.9481 34.7116 66.1593 32.8001C79.4698 30.8743 94.8691 33.1732 111.683 37.7857C128.482 42.394 146.493 49.2517 165.011 56.3029C201.876 70.3402 240.862 85.2152 275.056 83.5776C292.245 82.7544 308.306 77.7633 322.303 66.3864C336.281 55.0258 348.045 37.4249 356.892 11.6492L353.108 10.3508Z" fill="white"/>
</svg>
