<svg width="1225" height="310" viewBox="0 0 1225 310" fill="none" xmlns="http://www.w3.org/2000/svg">
<path d="M1198.09 11C1198.09 16.891 1202.87 21.6667 1208.76 21.6667C1214.65 21.6667 1219.43 16.891 1219.43 11C1219.43 5.10896 1214.65 0.333333 1208.76 0.333333C1202.87 0.333333 1198.09 5.10896 1198.09 11ZM250.5 135L250.58 133.002L250.58 133.002L250.5 135ZM20.2955 309.872C21.3293 310.261 22.4828 309.738 22.8718 308.704L29.2119 291.858C29.6009 290.824 29.0783 289.671 28.0445 289.282C27.0107 288.893 25.8573 289.415 25.4682 290.449L19.8326 305.424L4.85796 299.788C3.82418 299.399 2.67074 299.922 2.28168 300.955C1.89262 301.989 2.41528 303.143 3.44906 303.532L20.2955 309.872ZM1207.67 12.6755C1220.85 21.2702 1224.43 37.3529 1217.65 57.5156C1210.88 77.6812 1193.83 101.412 1166.66 124.121C1112.36 169.5 1018.06 210.441 886.698 210.441V214.441C1018.88 214.441 1114.12 173.242 1169.22 127.191C1196.75 104.185 1214.36 79.8782 1221.45 58.7897C1228.53 37.6984 1225.17 19.3105 1209.85 9.32452L1207.67 12.6755ZM886.698 210.441C812.431 210.441 682.215 192.252 556.052 173.453C430.045 154.678 308.049 135.288 250.58 133.002L250.42 136.998C307.606 139.274 429.259 158.605 555.463 177.409C681.509 196.191 812.065 214.441 886.698 214.441V210.441ZM250.58 133.002C169.939 129.793 114.152 137.003 76.0753 150.236C37.957 163.484 17.4729 182.817 7.72476 203.854C-1.99853 224.837 -0.875144 247.165 3.5036 266.117C7.88217 285.068 15.5741 300.871 19.1783 308.825L22.8217 307.175C19.1758 299.129 11.6726 283.705 7.40093 265.217C3.12943 246.729 2.14753 225.404 11.3541 205.535C20.5358 185.721 40.0165 167.003 77.3884 154.014C114.802 141.011 170.03 133.8 250.42 136.998L250.58 133.002Z" fill="white"/>
</svg>
